<svg version="1.1" id="Layer_1" xmlns="http://www.w3.org/2000/svg" xmlns:xlink="http://www.w3.org/1999/xlink" x="0px" y="0px"
	 width="100%" viewBox="0 0 1000 1000" xml:space="preserve">
<path fill="#08589C" fill-rule="evenodd" opacity="1.000000" stroke="none"
	d="
M175.774597,114.965294
	C175.774597,114.965294 175.719208,114.712044 175.031769,114.547775
	C162.572128,126.244987 157.124741,141.184494 157.113068,157.720215
	C156.947083,392.977081 156.961823,628.234192 157.170685,863.490967
	C157.177444,871.109985 159.040497,878.924133 161.222549,886.296875
	C164.252838,896.535767 171.402115,904.264526 178.999496,911.563110
	C190.171249,922.295410 203.610214,927.893188 218.855560,927.905640
	C399.296906,928.052490 579.738342,928.005432 760.179810,927.958801
	C763.590759,927.957947 767.005188,927.373840 770.411865,927.005371
	C785.318359,925.392700 797.406738,918.572021 807.598572,906.838257
	C810.663879,903.482849 813.729187,900.127441 817.244995,896.595337
	C817.539673,896.435669 817.758118,896.204163 818.446838,895.846619
	C818.573608,895.532227 818.700317,895.217773 819.154358,894.295532
	C837.252441,881.072632 846.960815,863.371887 846.968201,840.847473
	C847.026611,662.217224 846.992004,483.586914 847.069153,304.956665
	C847.070557,301.700989 846.083923,299.479004 843.802795,297.201355
	C769.752258,223.262741 695.754456,149.271332 621.832397,75.204315
	C619.368713,72.735786 616.951050,71.930443 613.571655,71.932610
	C489.430328,72.012360 365.288910,71.966362 241.147705,72.111465
	C235.695374,72.117836 230.157990,73.400154 224.810242,74.703651
	C209.817169,78.358185 199.729263,88.981430 189.452499,100.160477
	C189.364685,100.486763 189.276871,100.813042 188.759644,101.387253
	C188.484482,101.596535 188.307388,101.869461 187.530014,102.206482
	C184.347916,105.522842 181.165817,108.839195 177.310745,112.173546
	C176.769379,113.022774 176.227997,113.872002 175.774597,114.965294
z
M242.027740,147.909668
	C242.074005,150.939804 242.120255,153.969940 242.020630,157.927307
	C242.020630,386.189087 242.020630,614.450867 242.020630,843.000000
	C244.235321,843.000000 245.876450,843.000000 247.517563,843.000000
	C417.348907,843.000000 587.180237,843.000488 757.011597,842.993103
	C758.674377,842.993042 760.337158,842.888977 762.898010,842.967896
	C765.930237,842.928955 768.962402,842.890015 772.914917,842.950195
	C776.491150,842.950195 780.067383,842.950195 783.999939,842.950195
	C783.999939,840.258606 783.999939,838.443237 783.999939,836.627869
	C783.999939,669.507263 784.000427,502.386688 783.998291,335.266113
	C783.998169,328.854218 783.986694,328.843567 777.397827,328.843262
	C716.081421,328.840393 654.764954,328.842743 593.448547,328.839661
	C587.008972,328.839325 587.001404,328.827759 587.001160,322.269470
	C586.999146,262.119385 587.000000,201.969299 587.000000,141.819214
	C587.000000,139.720764 587.000000,137.622314 587.000000,135.334869
	C471.697266,135.334869 357.159058,135.334869 242.148880,135.334869
	C242.148880,139.440170 242.148880,143.222778 242.027740,147.909668
z"/>
<path fill="#1FBCFD" opacity="1.000000" stroke="none" 
	d="
M817.900330,895.900696 
	C817.758118,896.204163 817.539673,896.435669 816.651489,896.673340 
	C805.865234,902.349609 795.081482,905.940552 783.344238,905.941772 
	C603.016663,905.961243 422.689026,905.965332 242.361465,905.888123 
	C238.098526,905.886353 233.796738,905.118896 229.579758,904.345215 
	C204.738159,899.787354 179.582809,873.019287 179.642212,842.050720 
	C180.093658,606.725708 179.882156,371.399475 179.929916,136.073608 
	C179.930817,131.611404 179.919922,126.971725 181.068939,122.727364 
	C182.957291,115.752068 185.792450,109.033089 188.228394,102.206032 
	C188.307388,101.869461 188.484482,101.596535 189.222900,101.165695 
	C189.773300,100.610008 189.860428,100.275871 189.947556,99.941734 
	C199.729263,88.981430 209.817169,78.358185 224.810242,74.703651 
	C230.157990,73.400154 235.695374,72.117836 241.147705,72.111465 
	C365.288910,71.966362 489.430328,72.012360 613.571655,71.932610 
	C616.951050,71.930443 619.368713,72.735786 621.832397,75.204315 
	C695.754456,149.271332 769.752258,223.262741 843.802795,297.201355 
	C846.083923,299.479004 847.070557,301.700989 847.069153,304.956665 
	C846.992004,483.586914 847.026611,662.217224 846.968201,840.847473 
	C846.960815,863.371887 837.252441,881.072632 818.762817,894.694092 
	C818.028564,895.253723 817.871582,895.523071 817.900330,895.900696 
M242.027740,147.909668 
	C242.074005,150.939804 242.120255,153.969940 242.020630,157.927307 
	C242.020630,386.189087 242.020630,614.450867 242.020630,843.000000 
	C244.235321,843.000000 245.876450,843.000000 247.517563,843.000000 
	C417.348907,843.000000 587.180237,843.000488 757.011597,842.993103 
	C758.674377,842.993042 760.337158,842.888977 762.898010,842.967896 
	C765.930237,842.928955 768.962402,842.890015 772.914917,842.950195 
	C776.491150,842.950195 780.067383,842.950195 783.999939,842.950195 
	C783.999939,840.258606 783.999939,838.443237 783.999939,836.627869 
	C783.999939,669.507263 784.000427,502.386688 783.998291,335.266113 
	C783.998169,328.854218 783.986694,328.843567 777.397827,328.843262 
	C716.081421,328.840393 654.764954,328.842743 593.448547,328.839661 
	C587.008972,328.839325 587.001404,328.827759 587.001160,322.269470 
	C586.999146,262.119385 587.000000,201.969299 587.000000,141.819214 
	C587.000000,139.720764 587.000000,137.622314 587.000000,135.334869 
	C471.697266,135.334869 357.159058,135.334869 242.148880,135.334869 
	C242.148880,139.440170 242.148880,143.222778 242.027740,147.909668 
z"/>
<path fill="#08589C" opacity="1.000000" stroke="none" 
	d="
M187.879211,102.206253 
	C185.792450,109.033089 182.957291,115.752068 181.068939,122.727364 
	C179.919922,126.971725 179.930817,131.611404 179.929916,136.073608 
	C179.882156,371.399475 180.093658,606.725708 179.642212,842.050720 
	C179.582809,873.019287 204.738159,899.787354 229.579758,904.345215 
	C233.796738,905.118896 238.098526,905.886353 242.361465,905.888123 
	C422.689026,905.965332 603.016663,905.961243 783.344238,905.941772 
	C795.081482,905.940552 805.865234,902.349609 816.426208,896.761658 
	C813.729187,900.127441 810.663879,903.482849 806.932190,906.943604 
	C804.992004,907.721069 803.675110,908.323120 802.451355,909.076355 
	C793.429626,914.628906 783.477905,917.032043 772.712830,917.582520 
	C770.725159,917.220093 769.070618,917.013916 767.416016,917.013794 
	C589.358154,916.999146 411.300354,916.997681 233.242508,917.034607 
	C231.479630,917.034973 229.716827,917.556702 227.537872,917.907104 
	C224.062759,917.507263 220.973831,917.177246 217.949814,916.539429 
	C203.406189,913.472046 191.594147,905.668213 182.178604,894.501038 
	C173.953568,884.745850 168.066681,873.530640 168.062012,860.403320 
	C167.976959,620.785400 167.964417,381.167480 168.195786,141.549789 
	C168.201828,135.286484 171.022095,128.999725 172.721619,122.776230 
	C173.474075,120.020782 174.705307,117.396095 175.719208,114.712044 
	C175.719208,114.712044 175.774597,114.965294 176.062866,114.963058 
	C176.895340,114.025734 177.439529,113.090645 177.983704,112.155556 
	C181.165817,108.839195 184.347916,105.522842 187.879211,102.206253 
z"/>
<path fill="#FFFFFF" opacity="1.000000" stroke="none" 
	d="
M773.045898,917.835022 
	C783.477905,917.032043 793.429626,914.628906 802.451355,909.076355 
	C803.675110,908.323120 804.992004,907.721069 806.630310,907.100342 
	C797.406738,918.572021 785.318359,925.392700 770.411865,927.005371 
	C767.005188,927.373840 763.590759,927.957947 760.179810,927.958801 
	C579.738342,928.005432 399.296906,928.052490 218.855560,927.905640 
	C203.610214,927.893188 190.171249,922.295410 178.999496,911.563110 
	C171.402115,904.264526 164.252838,896.535767 161.222549,886.296875 
	C159.040497,878.924133 157.177444,871.109985 157.170685,863.490967 
	C156.961823,628.234192 156.947083,392.977081 157.113068,157.720215 
	C157.124741,141.184494 162.572128,126.244987 175.375488,114.629913 
	C174.705307,117.396095 173.474075,120.020782 172.721619,122.776230 
	C171.022095,128.999725 168.201828,135.286484 168.195786,141.549789 
	C167.964417,381.167480 167.976959,620.785400 168.062012,860.403320 
	C168.066681,873.530640 173.953568,884.745850 182.178604,894.501038 
	C191.594147,905.668213 203.406189,913.472046 217.949814,916.539429 
	C220.973831,917.177246 224.062759,917.507263 228.006073,917.964600 
	C230.056122,917.966614 231.221863,917.997498 232.387604,917.997498 
	C411.110809,917.999756 589.833984,918.000183 768.557190,917.993042 
	C770.053406,917.992981 771.549683,917.889954 773.045898,917.835022 
z"/>
<path fill="#FFFFFF" opacity="1.000000" stroke="none" 
	d="
M177.647232,112.164551 
	C177.439529,113.090645 176.895340,114.025734 176.018890,114.841034 
	C176.227997,113.872002 176.769379,113.022774 177.647232,112.164551 
z"/>
<path fill="#08589C" opacity="1.000000" stroke="none" 
	d="
M818.173584,895.873657 
	C817.871582,895.523071 818.028564,895.253723 818.599243,894.998047 
	C818.700317,895.217773 818.573608,895.532227 818.173584,895.873657 
z"/>
<path fill="#08589C" opacity="1.000000" stroke="none" 
	d="
M189.700027,100.051102 
	C189.860428,100.275871 189.773300,100.610008 189.437622,101.041733 
	C189.276871,100.813042 189.364685,100.486763 189.700027,100.051102 
z"/>
<path fill="none" opacity="1.000000" stroke="none"
	d="
M761.999939,842.833496 
	C760.337158,842.888977 758.674377,842.993042 757.011597,842.993103 
	C587.180237,843.000488 417.348907,843.000000 247.517563,843.000000 
	C245.876450,843.000000 244.235321,843.000000 242.020630,843.000000 
	C242.020630,614.450867 242.020630,386.189087 242.550720,157.463654 
	C350.316376,157.000015 457.551941,157.000015 565.172607,157.000015 
	C565.172607,221.975769 565.172607,286.370758 565.172607,351.149414 
	C630.952576,351.149414 696.347412,351.149414 761.999939,351.149414 
	C761.999939,515.301270 761.999939,679.067383 761.999939,842.833496 
M533.904846,772.041199 
	C536.793457,772.041199 539.682007,772.041199 543.096008,772.041199 
	C543.096008,767.590027 543.096008,763.855225 544.005432,760.015015 
	C547.598511,760.015015 551.191528,760.015015 554.672180,760.015015 
	C554.672180,738.644104 554.672180,717.933655 554.672180,697.265137 
	C485.007812,697.265137 415.671936,697.265137 345.888458,697.265137 
	C345.888458,701.319946 345.888458,705.114319 344.980499,708.975281 
	C341.448914,708.975281 337.917328,708.975281 333.983337,708.975281 
	C333.983337,712.799316 333.983337,715.878174 333.067566,718.996887 
	C330.129608,718.996887 327.191620,718.996887 324.258026,718.996887 
	C324.258026,740.253357 324.258026,760.988098 324.258026,781.770569 
	C393.910034,781.770569 463.303802,781.770569 532.996521,781.770569 
	C532.996521,778.417419 532.996521,775.285828 533.904846,772.041199 
M333.067566,593.996887 
	C330.129364,593.996887 327.191162,593.996887 324.260864,593.996887 
	C324.260864,615.255859 324.260864,635.992188 324.260864,656.770935 
	C435.580109,656.770935 546.638367,656.770935 657.996521,656.770935 
	C657.996521,653.415222 657.996521,650.284729 658.904846,647.041199 
	C661.793457,647.041199 664.682068,647.041199 668.096069,647.041199 
	C668.096069,642.590027 668.096069,638.855164 669.005493,635.014954 
	C672.599426,635.014954 676.193359,635.014954 679.662231,635.014954 
	C679.662231,613.635254 679.662231,592.919128 679.662231,572.263672 
	C568.329163,572.263672 457.334381,572.263672 345.888489,572.263672 
	C345.888489,576.317871 345.888489,580.113281 344.980499,583.975281 
	C341.448914,583.975281 337.917328,583.975281 333.983307,583.975281 
	C333.983307,587.796265 333.983307,590.876648 333.067566,593.996887 
M333.067444,468.996918 
	C330.129242,468.996918 327.191071,468.996918 324.260864,468.996918 
	C324.260864,490.255829 324.260864,510.992218 324.260864,531.770935 
	C435.580109,531.770935 546.638367,531.770935 657.996521,531.770935 
	C657.996521,528.415222 657.996521,525.284729 658.904846,522.041199 
	C661.793457,522.041199 664.682068,522.041199 668.096069,522.041199 
	C668.096069,517.586426 668.096069,513.853394 669.005493,510.015015 
	C672.599426,510.015015 676.193359,510.015015 679.662292,510.015015 
	C679.662292,488.635284 679.662292,467.919189 679.662292,447.263611 
	C568.329285,447.263611 457.334503,447.263611 345.888519,447.263611 
	C345.888519,451.317871 345.888519,455.113220 344.980560,458.975311 
	C341.448944,458.975311 337.917358,458.975311 333.983185,458.975311 
	C333.983185,462.796204 333.983185,465.876617 333.067444,468.996918 
z"/>
<path fill="#08589C" opacity="1.000000" stroke="none" 
	d="
M242.148880,147.005402 
	C242.148880,143.222778 242.148880,139.440170 242.148880,135.334869 
	C357.159058,135.334869 471.697266,135.334869 587.000000,135.334869 
	C587.000000,137.622314 587.000000,139.720764 587.000000,141.819214 
	C587.000000,201.969299 586.999146,262.119385 587.001160,322.269470 
	C587.001404,328.827759 587.008972,328.839325 593.448547,328.839661 
	C654.764954,328.842743 716.081421,328.840393 777.397827,328.843262 
	C783.986694,328.843567 783.998169,328.854218 783.998291,335.266113 
	C784.000427,502.386688 783.999939,669.507263 783.999939,836.627869 
	C783.999939,838.443237 783.999939,840.258606 783.999939,842.950195 
	C780.067383,842.950195 776.491150,842.950195 772.457031,842.444885 
	C771.999451,676.817444 772.000183,511.695343 771.994263,346.573212 
	C771.994141,344.743103 771.907043,342.912994 771.676270,340.698181 
	C761.507874,340.208984 751.523804,340.024994 741.539490,340.013184 
	C686.062622,339.947540 630.585815,339.923676 575.061279,339.426208 
	C575.013550,275.070984 575.013550,211.175049 575.013550,147.005402 
	C463.645599,147.005402 352.897247,147.005402 242.148880,147.005402 
z"/>
<path fill="#FFFFFF" opacity="1.000000" stroke="none" 
	d="
M771.860535,341.082886 
	C771.907043,342.912994 771.994141,344.743103 771.994263,346.573212 
	C772.000183,511.695343 771.999451,676.817444 771.996948,842.395325 
	C768.962402,842.890015 765.930237,842.928955 762.448975,842.900696 
	C761.999939,679.067383 761.999939,515.301270 761.999939,351.149414 
	C696.347412,351.149414 630.952576,351.149414 565.172607,351.149414 
	C565.172607,286.370758 565.172607,221.975769 565.172607,157.000015 
	C457.551941,157.000015 350.316376,157.000015 242.623657,157.000046 
	C242.120255,153.969940 242.074005,150.939804 242.088318,147.457535 
	C352.897247,147.005402 463.645599,147.005402 575.013550,147.005402 
	C575.013550,211.175049 575.013550,275.070984 575.295898,339.773682 
	C577.724365,340.720306 579.870300,340.980774 582.016479,340.982452 
	C645.297852,341.031738 708.579163,341.055237 771.860535,341.082886 
z"/>
<path fill="#647FAD" opacity="1.000000" stroke="none" 
	d="
M772.712830,917.582520 
	C771.549683,917.889954 770.053406,917.992981 768.557190,917.993042 
	C589.833984,918.000183 411.110809,917.999756 232.387604,917.997498 
	C231.221863,917.997498 230.056122,917.966614 228.422180,917.892578 
	C229.716827,917.556702 231.479630,917.034973 233.242508,917.034607 
	C411.300354,916.997681 589.358154,916.999146 767.416016,917.013794 
	C769.070618,917.013916 770.725159,917.220093 772.712830,917.582520 
z"/>
<path fill="#1FBCFD" opacity="1.000000" stroke="none" 
	d="
M345.888519,458.908569 
	C345.888519,455.113220 345.888519,451.317871 345.888519,447.263611 
	C457.334503,447.263611 568.329285,447.263611 679.662292,447.263611 
	C679.662292,467.919189 679.662292,488.635284 679.662292,510.015015 
	C676.193359,510.015015 672.599426,510.015015 668.078247,510.027283 
	C664.819641,510.026367 662.488403,510.001678 660.157104,510.001617 
	C557.574768,509.999725 454.992371,509.967621 352.410187,510.100555 
	C347.552795,510.106842 345.799103,509.148743 345.920166,503.860779 
	C346.263000,488.884796 345.945801,473.893707 345.888519,458.908569 
z"/>
<path fill="#1FBCFD" opacity="1.000000" stroke="none" 
	d="
M345.888489,583.908630 
	C345.888489,580.113281 345.888489,576.317871 345.888489,572.263672 
	C457.334381,572.263672 568.329163,572.263672 679.662231,572.263672 
	C679.662231,592.919128 679.662231,613.635254 679.662231,635.014954 
	C676.193359,635.014954 672.599426,635.014954 668.078247,635.027222 
	C664.819763,635.026367 662.488525,635.001648 660.157227,635.001648 
	C557.574829,634.999695 454.992462,634.967651 352.410248,635.100586 
	C347.552856,635.106873 345.799164,634.148804 345.920227,628.860840 
	C346.263031,613.884888 345.945770,598.893799 345.888489,583.908630 
z"/>
<path fill="#1FBCFD" opacity="1.000000" stroke="none" 
	d="
M345.888458,708.908630 
	C345.888458,705.114319 345.888458,701.319946 345.888458,697.265137 
	C415.671936,697.265137 485.007812,697.265137 554.672180,697.265137 
	C554.672180,717.933655 554.672180,738.644104 554.672180,760.015015 
	C551.191528,760.015015 547.598511,760.015015 543.078247,760.027344 
	C478.729797,760.026367 415.308441,759.972351 351.887390,760.087708 
	C347.454926,760.095764 345.865265,759.086670 345.944885,754.342773 
	C346.198914,739.202637 345.945740,724.054016 345.888458,708.908630 
z"/>
<path fill="#08589C" opacity="1.000000" stroke="none" 
	d="
M345.434540,458.941956 
	C345.945801,473.893707 346.263000,488.884796 345.920166,503.860779 
	C345.799103,509.148743 347.552795,510.106842 352.410187,510.100555 
	C454.992371,509.967621 557.574768,509.999725 660.157104,510.001617 
	C662.488403,510.001678 664.819641,510.026367 667.623535,510.079956 
	C668.096069,513.853394 668.096069,517.586426 668.096069,522.041199 
	C664.682068,522.041199 661.793457,522.041199 657.985168,522.030090 
	C551.727417,522.012634 446.389313,522.007141 341.051239,521.993896 
	C339.057343,521.993652 337.063446,521.901978 335.048401,521.394165 
	C335.018158,505.524872 335.047180,490.114014 334.950043,474.703949 
	C334.938354,472.850494 334.242889,471.001343 333.848145,469.073639 
	C333.831970,468.997101 333.983185,468.957001 333.983185,468.957001 
	C333.983185,465.876617 333.983185,462.796204 333.983185,458.975311 
	C337.917358,458.975311 341.448944,458.975311 345.434540,458.941956 
z"/>
<path fill="#08589C" opacity="1.000000" stroke="none" 
	d="
M345.434509,583.941956 
	C345.945770,598.893799 346.263031,613.884888 345.920227,628.860840 
	C345.799164,634.148804 347.552856,635.106873 352.410248,635.100586 
	C454.992462,634.967651 557.574829,634.999695 660.157227,635.001648 
	C662.488525,635.001648 664.819763,635.026367 667.623535,635.079895 
	C668.096069,638.855164 668.096069,642.590027 668.096069,647.041199 
	C664.682068,647.041199 661.793457,647.041199 657.985168,647.030090 
	C551.727417,647.012634 446.389313,647.007141 341.051239,646.993896 
	C339.057343,646.993652 337.063446,646.901917 335.048401,646.394165 
	C335.018158,630.524841 335.047150,615.114014 334.950012,599.703918 
	C334.938354,597.850464 334.242889,596.001343 333.848175,594.073608 
	C333.832031,593.997009 333.983307,593.957031 333.983307,593.957031 
	C333.983307,590.876648 333.983307,587.796265 333.983307,583.975281 
	C337.917328,583.975281 341.448914,583.975281 345.434509,583.941956 
z"/>
<path fill="#FFFFFF" opacity="1.000000" stroke="none" 
	d="
M335.069550,521.852905 
	C337.063446,521.901978 339.057343,521.993652 341.051239,521.993896 
	C446.389313,522.007141 551.727417,522.012634 657.531006,522.086548 
	C657.996521,525.284729 657.996521,528.415222 657.996521,531.770935 
	C546.638367,531.770935 435.580109,531.770935 324.260864,531.770935 
	C324.260864,510.992218 324.260864,490.255829 324.260864,468.996918 
	C327.191071,468.996918 330.129242,468.996918 333.525330,468.976959 
	C333.983185,468.957001 333.831970,468.997101 333.899109,469.531555 
	C333.977539,485.679871 333.957092,501.293945 334.046875,516.907410 
	C334.056366,518.557800 334.713104,520.204468 335.069550,521.852905 
z"/>
<path fill="#FFFFFF" opacity="1.000000" stroke="none" 
	d="
M335.069550,646.852905 
	C337.063446,646.901917 339.057343,646.993652 341.051239,646.993896 
	C446.389313,647.007141 551.727417,647.012634 657.531006,647.086548 
	C657.996521,650.284729 657.996521,653.415222 657.996521,656.770935 
	C546.638367,656.770935 435.580109,656.770935 324.260864,656.770935 
	C324.260864,635.992188 324.260864,615.255859 324.260864,593.996887 
	C327.191162,593.996887 330.129364,593.996887 333.525452,593.976929 
	C333.983307,593.957031 333.832031,593.997009 333.899109,594.531494 
	C333.977539,610.679871 333.957123,626.293945 334.046906,641.907410 
	C334.056396,643.557800 334.713104,645.204468 335.069550,646.852905 
z"/>
<path fill="#08589C" opacity="1.000000" stroke="none" 
	d="
M345.434479,708.941956 
	C345.945740,724.054016 346.198914,739.202637 345.944885,754.342773 
	C345.865265,759.086670 347.454926,760.095764 351.887390,760.087708 
	C415.308441,759.972351 478.729797,760.026367 542.623535,760.079956 
	C543.096008,763.855225 543.096008,767.590027 543.096008,772.041199 
	C539.682007,772.041199 536.793457,772.041199 532.985168,772.030090 
	C482.523315,772.012695 432.981140,772.017700 383.438965,771.993591 
	C367.315796,771.985718 351.192719,771.901917 335.048431,771.394165 
	C335.018188,755.524841 335.047180,740.114014 334.950012,724.703918 
	C334.938293,722.850464 334.242889,721.001343 333.848175,719.073608 
	C333.832031,718.997009 333.983337,718.957031 333.983337,718.957031 
	C333.983337,715.878174 333.983337,712.799316 333.983337,708.975281 
	C337.917328,708.975281 341.448914,708.975281 345.434479,708.941956 
z"/>
<path fill="#FFFFFF" opacity="1.000000" stroke="none" 
	d="
M335.069580,771.852905 
	C351.192719,771.901917 367.315796,771.985718 383.438965,771.993591 
	C432.981140,772.017700 482.523315,772.012695 532.531006,772.086548 
	C532.996521,775.285828 532.996521,778.417419 532.996521,781.770569 
	C463.303802,781.770569 393.910034,781.770569 324.258026,781.770569 
	C324.258026,760.988098 324.258026,740.253357 324.258026,718.996887 
	C327.191620,718.996887 330.129608,718.996887 333.525452,718.976929 
	C333.983337,718.957031 333.832031,718.997009 333.899109,719.531494 
	C333.977539,735.679871 333.957123,751.293945 334.046906,766.907410 
	C334.056396,768.557800 334.713135,770.204468 335.069580,771.852905 
z"/>
<path fill="#A5B1C9" opacity="1.000000" stroke="none" 
	d="
M771.676270,340.698181 
	C708.579163,341.055237 645.297852,341.031738 582.016479,340.982452 
	C579.870300,340.980774 577.724365,340.720306 575.343628,340.233002 
	C630.585815,339.923676 686.062622,339.947540 741.539490,340.013184 
	C751.523804,340.024994 761.507874,340.208984 771.676270,340.698181 
z"/>
<path fill="#7188B1" opacity="1.000000" stroke="none" 
	d="
M335.048401,521.394165 
	C334.713104,520.204468 334.056366,518.557800 334.046875,516.907410 
	C333.957092,501.293945 333.977539,485.679871 333.915283,469.608093 
	C334.242889,471.001343 334.938354,472.850494 334.950043,474.703949 
	C335.047180,490.114014 335.018158,505.524872 335.048401,521.394165 
z"/>
<path fill="#7188B1" opacity="1.000000" stroke="none" 
	d="
M335.048401,646.394165 
	C334.713104,645.204468 334.056396,643.557800 334.046906,641.907410 
	C333.957123,626.293945 333.977539,610.679871 333.915283,594.608093 
	C334.242889,596.001343 334.938354,597.850464 334.950012,599.703918 
	C335.047150,615.114014 335.018158,630.524841 335.048401,646.394165 
z"/>
<path fill="#7188B1" opacity="1.000000" stroke="none" 
	d="
M335.048431,771.394165 
	C334.713135,770.204468 334.056396,768.557800 334.046906,766.907410 
	C333.957123,751.293945 333.977539,735.679871 333.915253,719.608093 
	C334.242889,721.001343 334.938293,722.850464 334.950012,724.703918 
	C335.047180,740.114014 335.018188,755.524841 335.048431,771.394165 
z"/>
</svg>